<?xml version="1.0" standalone="no"?>
<!DOCTYPE svg PUBLIC "-//W3C//DTD SVG 20010904//EN"
 "http://www.w3.org/TR/2001/REC-SVG-20010904/DTD/svg10.dtd">
<svg version="1.0" xmlns="http://www.w3.org/2000/svg"
 width="2400.000000pt" height="2400.000000pt" viewBox="0 0 2400.000000 2400.000000"
 preserveAspectRatio="xMidYMid meet">
<metadata>
Created by potrace 1.16, written by Peter Selinger 2001-2019
</metadata>
<g transform="translate(0.000000,2400.000000) scale(0.100000,-0.100000)"
fill="#000000" stroke="none">
<path d="M3110 12755 l0 -65 -1030 0 -1030 0 0 -95 0 -95 195 0 195 0 0 -1500
0 -1500 -195 0 -195 0 0 -105 0 -105 620 0 620 0 0 105 0 105 -195 0 -195 0 0
700 0 700 480 0 480 0 0 -201 c0 -179 2 -200 16 -195 9 3 63 6 120 6 l104 0 0
515 0 515 -22 -4 c-13 -3 -67 -8 -120 -11 l-98 -7 0 -194 0 -194 -480 0 -480
0 0 655 0 655 605 0 605 0 0 -220 0 -220 115 0 115 0 0 410 0 410 -115 0 -115
0 0 -65z"/>
<path d="M6357 12739 c-852 -55 -1536 -833 -1537 -1747 0 -392 129 -783 359
-1087 268 -355 636 -581 1056 -650 117 -19 364 -19 480 0 442 72 830 327 1093
718 311 460 393 1065 216 1597 -185 556 -627 985 -1159 1125 -162 42 -320 56
-508 44z m377 -303 c179 -53 323 -143 462 -288 265 -276 403 -671 404 -1150 0
-513 -156 -933 -452 -1214 -123 -116 -275 -203 -433 -246 -114 -31 -365 -31
-475 -1 -280 78 -486 231 -650 483 -312 482 -343 1278 -70 1819 168 334 443
554 768 616 122 23 334 14 446 -19z"/>
<path d="M9730 12596 l0 -96 190 0 190 0 0 -1500 0 -1500 -190 0 -190 0 0
-105 0 -105 615 0 615 0 0 105 0 105 -190 0 -190 0 0 655 0 655 197 -2 196 -3
426 -672 c234 -370 443 -692 463 -717 24 -28 62 -56 102 -76 55 -27 79 -33
187 -40 68 -5 222 -10 342 -10 l217 0 0 105 0 105 -123 0 c-156 0 -207 14
-276 76 -70 63 -85 85 -500 733 -251 391 -358 566 -350 572 7 4 33 10 57 14
116 17 271 86 381 169 211 159 328 486 292 815 -15 145 -41 235 -107 370 -49
100 -66 125 -137 195 -123 122 -260 186 -479 222 -90 15 -209 18 -920 21
l-818 4 0 -95z m1543 -184 c216 -59 360 -207 412 -422 23 -96 30 -262 16 -360
-40 -269 -190 -459 -425 -537 -80 -27 -86 -27 -388 -31 l-308 -4 0 692 0 692
308 -4 c274 -4 315 -7 385 -26z"/>
<path d="M14100 12595 l0 -95 200 0 200 0 2 -1152 3 -1153 28 -100 c116 -423
449 -722 920 -826 136 -30 425 -37 571 -14 209 32 415 107 567 206 234 153
373 327 452 567 73 219 71 173 74 1385 l4 1087 189 0 190 0 0 95 0 95 -515 0
-515 0 0 -95 0 -95 191 0 190 0 -4 -1047 c-3 -1019 -4 -1050 -24 -1138 -43
-187 -112 -332 -214 -455 -150 -180 -388 -300 -631 -318 -473 -36 -824 188
-968 616 -60 178 -60 186 -60 1315 l0 1027 190 0 190 0 0 95 0 95 -615 0 -615
0 0 -95z"/>
<path d="M18950 12595 l0 -95 190 0 190 0 0 -1500 0 -1500 -190 0 -190 0 0
-105 0 -105 520 0 520 0 0 105 0 105 -200 0 -200 0 0 1268 c0 697 4 1260 9
1252 4 -8 286 -637 626 -1398 340 -760 621 -1379 625 -1375 4 4 276 598 605
1318 329 721 609 1333 622 1360 l23 50 0 -1237 0 -1238 -190 0 -190 0 0 -105
0 -105 615 0 615 0 0 105 0 105 -200 0 -200 0 0 1500 0 1500 200 0 200 0 0 95
0 95 -407 -2 -408 -3 -595 -1297 c-327 -714 -597 -1298 -600 -1298 -3 0 -266
585 -584 1300 l-580 1300 -413 0 -413 0 0 -95z"/>
<path d="M7760 7430 l0 -90 35 0 c33 0 35 2 35 35 l0 35 110 0 110 0 0 -295 0
-295 -70 0 -70 0 0 -35 0 -35 200 0 200 0 0 35 0 35 -65 0 -65 0 0 295 0 295
110 0 110 0 0 -35 c0 -33 2 -35 35 -35 l35 0 0 90 0 90 -35 0 c-24 0 -35 -5
-35 -15 0 -13 -38 -15 -285 -15 -247 0 -285 2 -285 15 0 10 -11 15 -35 15
l-35 0 0 -90z"/>
<path d="M9350 7430 l0 -90 30 0 c28 0 30 3 30 35 l0 35 115 0 115 0 0 -295 0
-295 -70 0 -70 0 0 -35 0 -35 205 0 205 0 0 35 0 35 -70 0 -70 0 0 295 0 295
110 0 110 0 0 -35 c0 -33 2 -35 35 -35 l35 0 0 90 0 90 -35 0 c-24 0 -35 -5
-35 -15 0 -13 -39 -15 -290 -15 -251 0 -290 2 -290 15 0 10 -10 15 -30 15
l-30 0 0 -90z"/>
<path d="M12500 7430 l0 -90 35 0 c33 0 35 2 35 35 l0 35 110 0 110 0 0 -295
0 -295 -65 0 -65 0 0 -35 0 -35 200 0 200 0 0 35 0 35 -70 0 -70 0 0 295 0
295 110 0 110 0 0 -35 c0 -33 2 -35 35 -35 l35 0 0 90 0 90 -35 0 c-24 0 -35
-5 -35 -15 0 -13 -38 -15 -285 -15 -247 0 -285 2 -285 15 0 10 -11 15 -35 15
l-35 0 0 -90z"/>
<path d="M7202 7495 c-157 -49 -203 -231 -87 -340 24 -23 89 -64 144 -93 135
-71 171 -119 138 -186 -32 -68 -133 -84 -226 -36 -38 19 -41 24 -41 60 0 40 0
40 -40 40 l-40 0 0 -100 0 -100 40 0 c30 0 40 4 40 16 0 12 5 14 18 9 37 -16
118 -35 150 -35 145 0 245 106 228 244 -10 91 -64 155 -187 221 -92 49 -149
89 -155 108 -3 10 -3 34 1 53 13 69 114 96 202 53 40 -19 43 -24 43 -60 0 -37
2 -39 30 -39 l30 0 0 100 0 100 -29 0 c-16 0 -31 -5 -33 -10 -2 -7 -20 -7 -57
0 -70 13 -116 12 -169 -5z"/>
<path d="M15224 7500 c-198 -42 -340 -246 -305 -441 15 -89 55 -162 123 -224
77 -72 146 -98 258 -99 77 -1 92 2 151 31 80 40 159 120 197 200 24 51 27 70
27 153 -1 83 -4 102 -28 152 -80 164 -262 262 -423 228z m144 -86 c80 -33 135
-117 151 -229 10 -72 0 -170 -23 -226 -39 -94 -120 -159 -197 -159 -48 0 -132
44 -164 86 -55 72 -70 120 -70 234 0 94 3 111 27 160 61 124 172 178 276 134z"/>
<path d="M16291 7500 c-109 -23 -214 -107 -267 -215 -26 -55 -29 -69 -29 -165
0 -99 2 -109 33 -172 80 -163 264 -250 428 -203 290 83 384 436 172 648 -88
88 -223 131 -337 107z m183 -107 c175 -123 159 -475 -26 -567 -60 -30 -93 -32
-146 -10 -118 49 -192 216 -163 370 21 115 74 193 156 231 47 21 131 10 179
-24z"/>
<path d="M5130 7450 l0 -40 60 0 60 0 0 -295 0 -295 -60 0 -60 0 0 -35 0 -35
185 0 185 0 0 35 0 35 -60 0 -60 0 0 295 0 295 60 0 60 0 0 40 0 40 -185 0
-185 0 0 -40z"/>
<path d="M5850 7450 l0 -40 63 0 c36 0 68 -5 75 -12 9 -9 12 -88 12 -295 l0
-283 -60 0 -60 0 0 -35 0 -35 165 0 165 0 0 35 0 35 -60 0 -60 0 0 223 0 222
23 -27 c12 -16 112 -133 222 -262 184 -216 203 -235 233 -235 l32 -1 0 335 0
335 60 0 60 0 0 40 0 40 -165 0 -165 0 0 -40 0 -40 60 0 60 0 0 -217 c0 -208
-1 -217 -18 -196 -9 12 -107 127 -217 257 l-200 235 -112 1 -113 0 0 -40z"/>
<path d="M8720 7450 l0 -40 60 0 60 0 0 -295 0 -295 -60 0 -60 0 0 -35 0 -35
190 0 190 0 0 35 0 35 -65 0 -65 0 0 295 0 295 65 0 65 0 0 40 0 40 -190 0
-190 0 0 -40z"/>
<path d="M10300 7450 l0 -40 60 0 60 0 0 -244 0 -244 28 -53 c50 -97 163 -148
300 -136 111 11 198 64 245 152 21 37 22 56 25 283 l3 242 60 0 59 0 0 40 0
40 -165 0 -165 0 0 -40 0 -40 61 0 61 0 -4 -217 c-4 -233 -10 -266 -61 -322
-69 -75 -200 -80 -264 -10 -50 54 -56 89 -61 327 l-4 222 61 0 61 0 0 40 0 40
-180 0 -180 0 0 -40z"/>
<path d="M11430 7450 l0 -40 65 0 65 0 0 -242 c0 -271 5 -292 71 -355 58 -55
122 -78 219 -78 111 0 176 22 234 81 70 69 76 100 76 366 l0 228 65 0 65 0 0
40 0 40 -165 0 -165 0 0 -40 0 -40 61 0 61 0 -4 -217 c-3 -182 -6 -225 -21
-258 -25 -55 -62 -91 -114 -111 -93 -36 -190 4 -237 97 -26 52 -26 56 -26 271
l0 218 65 0 65 0 0 40 0 40 -190 0 -190 0 0 -40z"/>
<path d="M13930 7451 c0 -39 1 -40 37 -43 l37 -3 140 -337 c132 -321 141 -338
165 -338 25 0 33 18 166 340 l140 340 33 0 c31 0 32 2 32 40 l0 40 -120 0
-120 0 0 -40 0 -40 46 0 c33 0 45 -4 41 -12 -32 -81 -192 -438 -197 -438 -4 0
-163 368 -186 433 -5 15 1 17 45 17 l51 0 0 40 0 40 -155 0 -155 0 0 -39z"/>
<path d="M17090 7451 l0 -41 55 0 55 0 0 -295 0 -295 -55 0 -55 0 0 -35 0 -35
175 0 175 0 0 35 0 35 -55 0 -55 0 0 125 0 125 35 0 c34 0 38 -5 135 -150 55
-82 109 -154 119 -160 11 -5 60 -10 110 -10 l91 0 0 35 c0 35 -1 35 -43 35
-34 0 -49 6 -69 28 -22 23 -140 184 -162 219 -5 9 6 18 33 29 83 33 128 119
118 222 -7 67 -38 117 -91 145 -38 21 -56 22 -278 25 l-238 3 0 -40z m410 -56
c80 -42 79 -185 -2 -235 -24 -15 -50 -20 -100 -20 l-68 0 0 135 0 135 70 0
c44 0 82 -6 100 -15z"/>
<path d="M8370 5740 l0 -100 40 0 40 0 0 45 0 45 110 0 110 0 0 -300 0 -300
-70 0 -70 0 0 -35 0 -35 200 0 200 0 0 35 0 35 -65 0 -65 0 0 300 0 300 110 0
110 0 0 -45 c0 -45 0 -45 35 -45 l35 0 0 100 0 100 -35 0 c-28 0 -35 -4 -35
-20 0 -20 -7 -20 -285 -20 -278 0 -285 0 -285 20 0 17 -7 20 -40 20 l-40 0 0
-100z"/>
<path d="M10650 5815 c0 -29 0 -29 -64 -10 -97 30 -250 14 -348 -36 -66 -34
-133 -103 -164 -172 -25 -55 -29 -73 -29 -162 0 -87 4 -107 26 -155 48 -104
127 -172 240 -210 55 -19 81 -21 179 -18 76 3 135 10 173 23 l57 19 0 78 0 78
-35 0 c-34 0 -35 -1 -35 -41 0 -38 -2 -41 -47 -62 -105 -48 -246 -18 -321 68
-58 65 -75 111 -80 210 -5 117 19 187 88 256 85 85 198 100 304 40 42 -23 52
-34 54 -60 3 -28 6 -31 38 -31 l34 0 0 105 0 105 -35 0 c-31 0 -35 -3 -35 -25z"/>
<path d="M12930 5740 l0 -100 35 0 c35 0 35 0 35 45 l0 45 110 0 110 0 0 -300
0 -300 -70 0 -70 0 0 -35 0 -35 200 0 200 0 0 35 0 35 -65 0 -65 0 0 300 0
300 110 0 110 0 0 -45 c0 -45 0 -45 35 -45 l35 0 0 100 0 100 -35 0 c-28 0
-35 -4 -35 -20 0 -20 -7 -20 -285 -20 -278 0 -285 0 -285 20 0 16 -7 20 -35
20 l-35 0 0 -100z"/>
<path d="M16540 5820 c0 -19 -7 -20 -245 -20 l-245 0 0 -35 0 -35 55 0 55 0 0
-300 0 -300 -55 0 -55 0 0 -35 0 -35 290 0 290 0 0 80 0 80 -40 0 -40 0 0 -40
0 -40 -130 0 -130 0 0 130 0 130 95 0 95 0 0 -35 c0 -33 2 -35 35 -35 l35 0 0
115 0 115 -35 0 c-34 0 -35 -1 -35 -40 l0 -40 -95 0 -95 0 0 125 0 125 125 0
125 0 0 -40 c0 -39 1 -40 35 -40 l35 0 0 95 0 95 -35 0 c-28 0 -35 -4 -35 -20z"/>
<path d="M18320 5820 c0 -19 -7 -20 -255 -20 l-255 0 0 -35 0 -35 60 0 60 0 0
-300 0 -300 -60 0 -60 0 0 -35 0 -35 290 0 290 0 0 80 0 80 -30 0 c-28 0 -30
-2 -30 -40 l0 -40 -135 0 -135 0 0 130 0 130 100 0 100 0 0 -35 c0 -33 2 -35
35 -35 l35 0 0 115 0 115 -35 0 c-34 0 -35 -1 -35 -40 l0 -40 -100 0 -100 0 0
125 0 125 130 0 130 0 0 -40 c0 -36 3 -40 25 -40 25 0 25 0 25 95 0 95 0 95
-25 95 -18 0 -25 -5 -25 -20z"/>
<path d="M5130 5765 l0 -35 60 0 60 0 0 -300 0 -300 -60 0 -60 0 0 -35 0 -35
165 0 165 0 0 35 0 35 -60 0 -60 0 0 228 1 227 38 -75 c20 -41 77 -161 127
-267 49 -105 92 -188 96 -184 6 5 166 337 254 526 l23 50 0 -252 1 -253 -60 0
-60 0 0 -35 0 -35 185 0 185 0 0 35 0 35 -60 0 -60 0 0 300 0 300 60 0 60 0 0
35 0 35 -128 0 -127 0 -130 -260 -130 -261 -120 261 -119 260 -123 0 -123 0 0
-35z"/>
<path d="M6460 5765 l0 -35 59 0 60 0 3 -247 c3 -281 7 -296 89 -367 62 -52
122 -69 233 -64 102 5 149 23 205 80 70 69 76 96 79 361 l4 237 64 0 64 0 0
35 0 35 -170 0 -170 0 0 -35 0 -35 60 0 60 0 0 -220 c0 -177 -3 -228 -15 -258
-54 -129 -216 -162 -318 -64 -47 45 -57 102 -57 334 l0 208 60 0 60 0 0 35 0
35 -185 0 -185 0 0 -35z"/>
<path d="M7640 5765 l0 -35 60 0 60 0 0 -300 0 -300 -60 0 -60 0 0 -35 0 -35
280 0 280 0 0 80 0 80 -30 0 c-28 0 -30 -2 -30 -40 l0 -40 -125 0 -125 0 0
295 0 295 60 0 60 0 0 35 0 35 -185 0 -185 0 0 -35z"/>
<path d="M9340 5765 l0 -35 60 0 60 0 0 -300 0 -300 -60 0 -60 0 0 -35 0 -35
190 0 190 0 0 35 0 35 -65 0 -65 0 0 300 0 300 65 0 65 0 0 35 0 35 -190 0
-190 0 0 -35z"/>
<path d="M11010 5765 l0 -35 60 0 60 0 0 -228 c0 -268 7 -302 72 -369 58 -59
125 -83 232 -83 49 0 101 6 129 16 64 22 129 82 157 146 22 49 24 69 28 285
l4 232 57 3 c55 3 56 3 59 36 l3 32 -170 0 -171 0 0 -35 0 -35 66 0 65 0 -3
-227 c-3 -215 -4 -231 -26 -270 -79 -150 -317 -127 -361 34 -6 21 -11 133 -11
251 l0 212 65 0 65 0 0 35 0 35 -190 0 -190 0 0 -35z"/>
<path d="M12190 5765 l0 -35 60 0 60 0 0 -300 0 -300 -60 0 -60 0 0 -35 0 -35
285 0 285 0 0 80 0 80 -30 0 c-28 0 -30 -2 -30 -40 l0 -40 -135 0 -135 0 0
295 0 295 60 0 60 0 0 35 0 35 -180 0 -180 0 0 -35z"/>
<path d="M13862 5768 c3 -33 3 -33 66 -36 l62 -3 0 -219 c0 -121 5 -242 11
-270 14 -66 62 -127 124 -159 44 -23 61 -26 160 -26 103 0 113 2 163 30 59 32
91 66 125 129 21 38 22 56 25 279 l4 237 59 0 59 0 0 35 0 35 -170 0 -170 0 0
-35 0 -35 60 0 60 0 0 -225 c0 -204 -2 -229 -20 -264 -73 -144 -271 -146 -341
-4 -23 45 -24 60 -27 271 l-4 222 66 0 66 0 0 35 0 35 -191 0 -190 0 3 -32z"/>
<path d="M15030 5765 l0 -35 60 0 60 0 0 -300 0 -300 -60 0 -60 0 0 -35 0 -35
185 0 185 0 0 35 0 35 -60 0 -60 0 0 130 0 130 33 0 c30 0 37 -8 120 -134 48
-73 102 -146 118 -162 28 -27 36 -29 125 -32 l94 -4 0 36 c0 34 -2 36 -32 36
-56 0 -91 31 -166 151 l-72 112 50 29 c69 39 103 98 102 181 0 104 -34 156
-121 185 -22 8 -117 12 -267 12 l-234 0 0 -35z m433 -55 c32 -26 51 -81 44
-132 -11 -82 -62 -118 -167 -118 l-60 0 0 135 0 135 79 0 c63 0 83 -4 104 -20z"/>
<path d="M16970 5765 l0 -35 60 0 60 0 0 -300 0 -300 -60 0 -60 0 0 -35 0 -35
290 0 290 0 0 80 0 80 -35 0 c-34 0 -35 -1 -35 -40 l0 -40 -135 0 -135 0 0
295 0 295 65 0 65 0 0 35 0 35 -185 0 -185 0 0 -35z"/>
<path d="M7300 4055 l0 -95 35 0 c35 0 35 0 35 45 l0 45 110 0 110 0 0 -305 0
-305 -70 0 -70 0 0 -35 0 -35 200 0 200 0 0 35 0 35 -65 0 -65 0 0 305 0 305
110 0 110 0 0 -45 c0 -45 0 -45 35 -45 l35 0 0 95 0 95 -35 0 c-24 0 -35 -5
-35 -15 0 -13 -38 -15 -285 -15 -247 0 -285 2 -285 15 0 10 -11 15 -35 15
l-35 0 0 -95z"/>
<path d="M12830 4135 c0 -13 -34 -15 -250 -15 l-250 0 0 -35 0 -35 60 0 60 0
0 -305 0 -305 -60 0 -60 0 0 -35 0 -35 285 0 285 0 0 85 0 85 -30 0 c-29 0
-30 -1 -30 -50 l0 -50 -130 0 -130 0 0 140 0 140 100 0 100 0 0 -40 c0 -38 2
-40 30 -40 l30 0 0 115 0 115 -30 0 c-29 0 -30 -2 -30 -45 l0 -45 -100 0 -100
0 0 135 0 135 125 0 125 0 0 -45 c0 -45 0 -45 35 -45 l35 0 0 95 0 95 -35 0
c-24 0 -35 -5 -35 -15z"/>
<path d="M5359 4117 c-31 -13 -70 -33 -86 -45 -238 -169 -207 -545 55 -674 61
-30 74 -33 162 -33 85 0 101 3 155 29 116 57 204 175 225 302 27 163 -66 332
-227 411 -81 39 -204 44 -284 10z m207 -73 c19 -9 55 -39 79 -66 88 -98 108
-249 51 -374 -51 -111 -131 -169 -222 -162 -126 11 -214 138 -214 308 0 129
46 229 129 282 53 33 123 38 177 12z"/>
<path d="M16276 4119 c-113 -39 -208 -126 -247 -228 -32 -80 -31 -213 1 -296
32 -83 122 -173 205 -205 102 -39 278 -39 418 0 l37 11 0 109 0 110 60 0 60 0
0 35 0 35 -185 0 -185 0 0 -35 0 -35 65 0 65 0 0 -91 0 -91 -102 4 c-86 3
-111 8 -153 30 -79 41 -122 97 -151 193 -31 108 -3 238 69 314 78 82 226 107
335 56 46 -21 52 -28 52 -55 0 -27 3 -30 30 -30 l30 0 0 95 0 95 -30 0 c-23 0
-30 -5 -30 -19 0 -19 -1 -19 -72 0 -96 25 -197 24 -272 -2z"/>
<path d="M6200 4085 l0 -35 53 0 c90 0 87 9 87 -323 l0 -287 -61 0 -60 0 3
-32 3 -33 163 -3 162 -2 0 35 0 35 -65 0 -65 0 0 227 0 227 28 -32 c447 -525
425 -501 460 -501 l32 -1 0 345 0 345 60 0 60 0 0 35 0 35 -165 0 -165 0 0
-35 0 -35 60 0 60 0 0 -216 c0 -118 -3 -213 -7 -210 -5 2 -102 115 -218 250
l-210 245 -107 0 -108 1 0 -35z"/>
<path d="M8160 4085 c0 -34 1 -35 38 -35 l37 0 140 -345 140 -345 36 0 36 0
63 160 c35 88 65 158 67 156 3 -2 30 -73 62 -158 l58 -153 33 0 33 0 143 340
c141 337 143 340 173 343 28 3 31 7 31 38 l0 34 -110 0 -110 0 0 -35 c0 -32 2
-35 31 -35 21 0 30 -4 26 -12 -62 -157 -189 -474 -191 -476 -5 -4 -106 263
-106 279 0 9 17 58 38 110 34 83 41 94 65 97 23 3 27 8 27 38 l0 34 -205 0
-205 0 0 -35 c0 -30 3 -35 24 -35 21 0 30 -15 75 -117 28 -64 54 -127 57 -139
4 -14 -11 -60 -39 -125 -42 -96 -46 -101 -56 -79 -34 79 -181 445 -181 452 0
4 9 8 20 8 16 0 20 7 20 35 l0 35 -135 0 -135 0 0 -35z"/>
<path d="M9500 4085 l0 -35 60 0 60 0 0 -305 0 -305 -60 0 -60 0 0 -35 0 -35
190 0 190 0 0 35 0 35 -65 0 -65 0 0 305 0 305 65 0 65 0 0 35 0 35 -190 0
-190 0 0 -35z"/>
<path d="M10240 4085 l0 -35 60 0 60 0 0 -305 0 -305 -61 0 -60 0 3 -32 3 -33
178 -3 177 -2 0 35 0 35 -55 0 -55 0 0 155 0 155 38 -43 c21 -23 96 -108 166
-189 l128 -148 94 0 94 0 0 35 c0 34 -1 35 -39 35 -39 0 -43 4 -185 166 -80
92 -146 170 -146 174 0 4 52 67 115 139 l116 131 49 0 50 0 0 35 0 35 -140 0
-140 0 0 -35 c0 -32 2 -35 30 -35 30 0 27 -4 -91 -137 -67 -76 -126 -142 -130
-147 -5 -6 -9 55 -9 137 l0 147 55 0 55 0 0 35 0 35 -180 0 -180 0 0 -35z"/>
<path d="M11290 4085 l0 -35 50 0 50 0 0 -305 0 -305 -50 0 -50 0 0 -35 0 -35
180 0 180 0 0 35 0 35 -60 0 -60 0 0 155 0 155 168 -189 167 -190 98 -1 97 0
0 35 c0 34 -1 35 -40 35 -38 0 -43 4 -185 165 -80 91 -145 170 -145 176 0 5
48 68 108 139 l107 129 58 0 57 1 0 35 0 35 -140 0 -140 0 0 -34 c0 -30 4 -35
27 -38 25 -3 19 -11 -102 -143 -70 -77 -130 -142 -132 -144 -1 -2 -3 62 -3
142 l0 147 60 0 60 0 0 35 0 35 -180 0 -180 0 0 -35z"/>
<path d="M13260 4085 l0 -35 60 0 60 0 0 -305 0 -305 -60 0 -60 0 0 -35 0 -35
285 0 285 0 0 90 0 90 -35 0 -35 0 0 -55 0 -55 -125 0 -125 0 0 305 0 305 60
0 60 0 0 35 0 35 -185 0 -185 0 0 -35z"/>
<path d="M14100 4085 l0 -35 55 0 55 0 0 -305 0 -305 -55 0 -55 0 0 -35 0 -35
180 0 180 0 0 35 0 35 -55 0 -55 0 0 305 0 305 55 0 55 0 0 35 0 35 -180 0
-180 0 0 -35z"/>
<path d="M14830 4085 l0 -35 55 0 c43 0 56 -4 65 -19 6 -12 10 -128 10 -305
l0 -286 -55 0 -55 0 0 -35 0 -35 165 0 165 0 0 35 0 35 -60 0 -60 0 0 221 c0
176 3 219 13 211 6 -6 107 -123 222 -261 179 -213 214 -250 238 -251 l27 0 0
345 0 345 60 0 60 0 0 35 0 35 -160 0 -160 0 0 -35 0 -35 60 0 60 0 0 -210 c0
-115 -2 -210 -4 -210 -2 0 -101 110 -220 245 l-217 245 -104 0 -105 0 0 -35z"/>
</g>
</svg>
